# MagicaVoxel @ Ephtracy

# group
o 

# material
mtllib Ground_Tile.mtl
usemtl palette

# normals
vn -1 0 0
vn 1 0 0
vn 0 0 1
vn 0 0 -1
vn 0 -1 0
vn 0 1 0

# texcoords
vt 0.896484 0.5
vt 0.986328 0.5

# verts
v -0.5 0 0.5
v -0.5 0 -0.5
v -0.5 1 0.5
v -0.5 1 -0.5
v 0.3 0.6 -0.1
v 0.3 0.6 -0.3
v 0.3 0.7 -0.1
v 0.3 0.7 -0.3
v 0.4 0.6 -0.3
v 0.4 0.6 -0.5
v 0.4 0.7 0
v 0.4 0.7 -0.2
v 0.4 0.7 -0.3
v 0.4 0.7 -0.5
v 0.4 0.8 0
v 0.4 0.8 -0.2
v -0.3 0.6 -0.4
v -0.3 0.6 -0.5
v -0.3 0.7 -0.4
v -0.3 0.7 -0.5
v -0.1 0.6 -0.3
v -0.1 0.6 -0.4
v -0.1 0.7 -0.4
v -0.1 0.7 -0.5
v -0.1 0.8 -0.3
v -0.1 0.8 -0.5
v 0 0.6 -0.2
v 0 0.6 -0.3
v 0 0.8 -0.3
v 0 0.8 -0.4
v 0 0.9 -0.2
v 0 0.9 -0.4
v 0.1 0.6 -0.1
v 0.1 0.6 -0.2
v 0.1 0.8 -0.4
v 0.1 0.8 -0.5
v 0.1 0.9 -0.1
v 0.1 0.9 -0.2
v 0.1 0.9 -0.4
v 0.1 0.9 -0.5
v 0.1 1 -0.1
v 0.1 1 -0.2
v 0.2 0 0
v 0.2 0 -0.1
v 0.2 0.1 0
v 0.2 0.1 -0.1
v 0.2 0.7 0
v 0.2 0.7 -0.1
v 0.2 0.9 0
v 0.2 0.9 -0.1
v 0.2 0.9 -0.2
v 0.2 0.9 -0.4
v 0.2 1 0
v 0.2 1 -0.1
v 0.2 1 -0.2
v 0.2 1 -0.4
v 0.3 0 0.1
v 0.3 0 0
v 0.3 0 -0.1
v 0.3 0 -0.3
v 0.3 0.1 0
v 0.3 0.1 -0.1
v 0.3 0.1 -0.3
v 0.3 0.2 0.1
v 0.3 0.2 0
v 0.3 0.9 0.1
v 0.3 0.9 0
v 0.3 0.9 -0.4
v 0.3 0.9 -0.5
v 0.3 1 0.1
v 0.3 1 0
v 0.3 1 -0.4
v 0.3 1 -0.5
v 0.4 0 -0.3
v 0.4 0 -0.5
v 0.4 0.1 0.2
v 0.4 0.1 0.1
v 0.4 0.1 0
v 0.4 0.1 -0.2
v 0.4 0.1 -0.3
v 0.4 0.1 -0.5
v 0.4 0.2 0.1
v 0.4 0.2 0
v 0.4 0.2 -0.2
v 0.4 0.3 0.2
v 0.4 0.3 0.1
v 0.4 0.8 0.1
v 0.4 0.8 0
v 0.4 0.9 0.1
v 0.4 0.9 0
v 0.5 0 0.5
v 0.5 0 0.1
v 0.5 0.1 0.2
v 0.5 0.1 0.1
v 0.5 0.1 -0.2
v 0.5 0.1 -0.5
v 0.5 0.2 0.1
v 0.5 0.2 -0.2
v 0.5 0.3 0.2
v 0.5 0.3 0.1
v 0.5 0.5 0.2
v 0.5 0.5 -0.5
v 0.5 0.7 0.3
v 0.5 0.7 0.2
v 0.5 0.7 -0.2
v 0.5 0.7 -0.5
v 0.5 0.8 0.1
v 0.5 0.8 -0.2
v 0.5 0.9 0.3
v 0.5 0.9 0.1
v 0.5 1 0.5
v 0.5 1 0.1
v -0.5 0 0.5
v -0.5 1 0.5
v 0.5 0 0.5
v 0.5 1 0.5
v 0.4 0.2 0.1
v 0.4 0.3 0.1
v 0.5 0.2 0.1
v 0.5 0.3 0.1
v 0.3 0.1 0
v 0.3 0.2 0
v 0.4 0.1 0
v 0.4 0.2 0
v 0.2 0 -0.1
v 0.2 0.1 -0.1
v 0.3 0 -0.1
v 0.3 0.1 -0.1
v 0.1 0.9 -0.2
v 0.1 1 -0.2
v 0.2 0.9 -0.2
v 0.2 1 -0.2
v 0.4 0.1 -0.2
v 0.4 0.2 -0.2
v 0.5 0.1 -0.2
v 0.5 0.2 -0.2
v 0.3 0 -0.3
v 0.3 0.1 -0.3
v 0.4 0 -0.3
v 0.4 0.1 -0.3
v 0 0.8 -0.4
v 0 0.9 -0.4
v 0.1 0.8 -0.4
v 0.1 0.9 -0.4
v 0.2 0.9 -0.4
v 0.2 1 -0.4
v 0.3 0.9 -0.4
v 0.3 1 -0.4
v 0.4 0.1 0.2
v 0.4 0.3 0.2
v 0.5 0.1 0.2
v 0.5 0.3 0.2
v 0.3 0 0.1
v 0.3 0.2 0.1
v 0.3 0.9 0.1
v 0.3 1 0.1
v 0.4 0.1 0.1
v 0.4 0.2 0.1
v 0.4 0.8 0.1
v 0.4 0.9 0.1
v 0.5 0 0.1
v 0.5 0.1 0.1
v 0.5 0.8 0.1
v 0.5 0.9 0.1
v 0.5 1 0.1
v 0.2 0 0
v 0.2 0.1 0
v 0.2 0.7 0
v 0.2 0.9 0
v 0.2 1 0
v 0.3 0 0
v 0.3 0.1 0
v 0.3 0.9 0
v 0.3 1 0
v 0.4 0.7 0
v 0.4 0.8 0
v 0.4 0.9 0
v 0.1 0.6 -0.1
v 0.1 0.9 -0.1
v 0.1 1 -0.1
v 0.2 0.7 -0.1
v 0.2 0.9 -0.1
v 0.2 1 -0.1
v 0.3 0.6 -0.1
v 0.3 0.7 -0.1
v 0 0.6 -0.2
v 0 0.9 -0.2
v 0.1 0.6 -0.2
v 0.1 0.9 -0.2
v 0.4 0.7 -0.2
v 0.4 0.8 -0.2
v 0.5 0.7 -0.2
v 0.5 0.8 -0.2
v -0.1 0.6 -0.3
v -0.1 0.8 -0.3
v 0 0.6 -0.3
v 0 0.8 -0.3
v 0.3 0.6 -0.3
v 0.3 0.7 -0.3
v 0.4 0.6 -0.3
v 0.4 0.7 -0.3
v -0.3 0.6 -0.4
v -0.3 0.7 -0.4
v -0.1 0.6 -0.4
v -0.1 0.7 -0.4
v -0.5 0 -0.5
v -0.5 1 -0.5
v -0.4 0.5 -0.5
v -0.4 0.8 -0.5
v -0.3 0.6 -0.5
v -0.3 0.7 -0.5
v -0.2 0.8 -0.5
v -0.2 0.9 -0.5
v -0.1 0.7 -0.5
v -0.1 0.8 -0.5
v 0.1 0.8 -0.5
v 0.1 0.9 -0.5
v 0.3 0.9 -0.5
v 0.3 1 -0.5
v 0.4 0 -0.5
v 0.4 0.1 -0.5
v 0.4 0.6 -0.5
v 0.4 0.7 -0.5
v 0.5 0.1 -0.5
v 0.5 0.5 -0.5
v 0.5 0.7 -0.5
v -0.5 0 0.5
v 0.5 0 0.5
v 0.3 0 0.1
v 0.5 0 0.1
v 0.2 0 0
v 0.3 0 0
v 0.2 0 -0.1
v 0.3 0 -0.1
v 0.3 0 -0.3
v 0.4 0 -0.3
v -0.5 0 -0.5
v 0.4 0 -0.5
v 0.2 0.1 0
v 0.3 0.1 0
v 0.4 0.1 0
v 0.2 0.1 -0.1
v 0.3 0.1 -0.1
v 0.4 0.1 -0.2
v 0.5 0.1 -0.2
v 0.3 0.1 -0.3
v 0.4 0.1 -0.3
v 0.4 0.1 -0.5
v 0.5 0.1 -0.5
v 0.3 0.2 0.1
v 0.4 0.2 0.1
v 0.5 0.2 0.1
v 0.3 0.2 0
v 0.4 0.2 0
v 0.4 0.2 -0.2
v 0.5 0.2 -0.2
v 0.4 0.3 0.2
v 0.5 0.3 0.2
v 0.4 0.3 0.1
v 0.5 0.3 0.1
v -0.3 0.7 -0.4
v -0.1 0.7 -0.4
v -0.3 0.7 -0.5
v -0.1 0.7 -0.5
v -0.1 0.8 -0.3
v 0 0.8 -0.3
v 0 0.8 -0.4
v 0.1 0.8 -0.4
v -0.1 0.8 -0.5
v 0.1 0.8 -0.5
v 0 0.9 -0.2
v 0.1 0.9 -0.2
v 0.2 0.9 -0.2
v 0 0.9 -0.4
v 0.1 0.9 -0.4
v 0.2 0.9 -0.4
v 0.3 0.9 -0.4
v 0.1 0.9 -0.5
v 0.3 0.9 -0.5
v 0.4 0.1 0.2
v 0.5 0.1 0.2
v 0.4 0.1 0.1
v 0.5 0.1 0.1
v 0.1 0.6 -0.1
v 0.3 0.6 -0.1
v 0 0.6 -0.2
v 0.1 0.6 -0.2
v -0.1 0.6 -0.3
v 0 0.6 -0.3
v 0.3 0.6 -0.3
v 0.4 0.6 -0.3
v -0.3 0.6 -0.4
v -0.1 0.6 -0.4
v -0.3 0.6 -0.5
v 0.4 0.6 -0.5
v 0.2 0.7 0
v 0.4 0.7 0
v 0.2 0.7 -0.1
v 0.3 0.7 -0.1
v 0.4 0.7 -0.2
v 0.5 0.7 -0.2
v 0.3 0.7 -0.3
v 0.4 0.7 -0.3
v 0.4 0.7 -0.5
v 0.5 0.7 -0.5
v 0.4 0.8 0.1
v 0.5 0.8 0.1
v 0.4 0.8 0
v 0.4 0.8 -0.2
v 0.5 0.8 -0.2
v 0.3 0.9 0.1
v 0.4 0.9 0.1
v 0.3 0.9 0
v 0.4 0.9 0
v -0.5 1 0.5
v 0.5 1 0.5
v 0.3 1 0.1
v 0.5 1 0.1
v 0.2 1 0
v 0.3 1 0
v 0.1 1 -0.1
v 0.2 1 -0.1
v 0.1 1 -0.2
v 0.2 1 -0.2
v 0.2 1 -0.4
v 0.3 1 -0.4
v -0.5 1 -0.5
v 0.3 1 -0.5

# faces
f 3/1/1 2/1/1 1/1/1
f 4/1/1 2/1/1 3/1/1
f 7/2/1 6/2/1 5/2/1
f 8/2/1 6/2/1 7/2/1
f 13/2/1 10/2/1 9/2/1
f 14/2/1 10/2/1 13/2/1
f 15/2/1 12/2/1 11/2/1
f 16/2/1 12/2/1 15/2/1
f 17/2/2 18/2/2 19/2/2
f 19/2/2 18/2/2 20/2/2
f 21/2/2 22/2/2 23/2/2
f 21/2/2 23/2/2 25/2/2
f 23/2/2 24/2/2 25/2/2
f 25/2/2 24/2/2 26/2/2
f 27/2/2 28/2/2 29/2/2
f 27/2/2 29/2/2 31/2/2
f 29/2/2 30/2/2 31/2/2
f 31/2/2 30/2/2 32/2/2
f 33/2/2 34/2/2 37/2/2
f 37/2/2 34/2/2 38/2/2
f 35/2/2 36/2/2 39/2/2
f 39/2/2 36/2/2 40/2/2
f 37/1/2 38/1/2 41/1/2
f 41/1/2 38/1/2 42/1/2
f 43/1/2 44/1/2 45/1/2
f 45/1/2 44/1/2 46/1/2
f 47/2/2 48/2/2 49/2/2
f 49/2/2 48/2/2 50/2/2
f 49/1/2 50/1/2 53/1/2
f 53/1/2 50/1/2 54/1/2
f 51/1/2 52/1/2 55/1/2
f 55/1/2 52/1/2 56/1/2
f 57/1/2 58/1/2 61/1/2
f 59/1/2 60/1/2 62/1/2
f 62/1/2 60/1/2 63/1/2
f 57/1/2 61/1/2 64/1/2
f 64/1/2 61/1/2 65/1/2
f 66/1/2 67/1/2 70/1/2
f 70/1/2 67/1/2 71/1/2
f 68/1/2 69/1/2 72/1/2
f 72/1/2 69/1/2 73/1/2
f 74/1/2 75/1/2 80/1/2
f 80/1/2 75/1/2 81/1/2
f 76/1/2 77/1/2 82/1/2
f 78/1/2 79/1/2 83/1/2
f 83/1/2 79/1/2 84/1/2
f 76/1/2 82/1/2 85/1/2
f 85/1/2 82/1/2 86/1/2
f 87/2/2 88/2/2 89/2/2
f 89/2/2 88/2/2 90/2/2
f 91/1/2 92/1/2 93/1/2
f 93/1/2 92/1/2 94/1/2
f 95/1/2 96/1/2 98/1/2
f 91/1/2 93/1/2 99/1/2
f 97/1/2 98/1/2 100/1/2
f 91/1/2 99/1/2 101/1/2
f 99/1/2 100/1/2 101/1/2
f 100/1/2 98/1/2 102/1/2
f 101/1/2 100/1/2 102/1/2
f 98/1/2 96/1/2 102/1/2
f 91/1/2 101/1/2 103/1/2
f 101/2/2 102/2/2 104/2/2
f 103/1/2 101/1/2 104/1/2
f 104/2/2 102/2/2 105/2/2
f 105/2/2 102/2/2 106/2/2
f 103/2/2 104/2/2 107/2/2
f 104/2/2 105/2/2 107/2/2
f 107/2/2 105/2/2 108/2/2
f 91/1/2 103/1/2 109/1/2
f 103/2/2 107/2/2 109/2/2
f 109/2/2 107/2/2 110/2/2
f 91/1/2 109/1/2 111/1/2
f 109/1/2 110/1/2 111/1/2
f 111/1/2 110/1/2 112/1/2
f 115/1/3 114/1/3 113/1/3
f 116/1/3 114/1/3 115/1/3
f 119/1/3 118/1/3 117/1/3
f 120/1/3 118/1/3 119/1/3
f 123/1/3 122/1/3 121/1/3
f 124/1/3 122/1/3 123/1/3
f 127/1/3 126/1/3 125/1/3
f 128/1/3 126/1/3 127/1/3
f 131/1/3 130/1/3 129/1/3
f 132/1/3 130/1/3 131/1/3
f 135/1/3 134/1/3 133/1/3
f 136/1/3 134/1/3 135/1/3
f 139/1/3 138/1/3 137/1/3
f 140/1/3 138/1/3 139/1/3
f 143/2/3 142/2/3 141/2/3
f 144/2/3 142/2/3 143/2/3
f 147/1/3 146/1/3 145/1/3
f 148/1/3 146/1/3 147/1/3
f 149/1/4 150/1/4 151/1/4
f 151/1/4 150/1/4 152/1/4
f 153/1/4 154/1/4 157/1/4
f 157/1/4 154/1/4 158/1/4
f 155/1/4 156/1/4 160/1/4
f 153/1/4 157/1/4 161/1/4
f 161/1/4 157/1/4 162/1/4
f 159/2/4 160/2/4 163/2/4
f 160/1/4 156/1/4 164/1/4
f 163/2/4 160/2/4 164/2/4
f 164/1/4 156/1/4 165/1/4
f 166/1/4 167/1/4 171/1/4
f 171/1/4 167/1/4 172/1/4
f 169/1/4 170/1/4 173/1/4
f 168/2/4 169/2/4 173/2/4
f 173/1/4 170/1/4 174/1/4
f 168/2/4 173/2/4 175/2/4
f 175/2/4 173/2/4 176/2/4
f 176/2/4 173/2/4 177/2/4
f 178/2/4 179/2/4 181/2/4
f 179/1/4 180/1/4 182/1/4
f 181/2/4 179/2/4 182/2/4
f 182/1/4 180/1/4 183/1/4
f 178/2/4 181/2/4 184/2/4
f 184/2/4 181/2/4 185/2/4
f 186/2/4 187/2/4 188/2/4
f 188/2/4 187/2/4 189/2/4
f 190/2/4 191/2/4 192/2/4
f 192/2/4 191/2/4 193/2/4
f 194/2/4 195/2/4 196/2/4
f 196/2/4 195/2/4 197/2/4
f 198/2/4 199/2/4 200/2/4
f 200/2/4 199/2/4 201/2/4
f 202/2/4 203/2/4 204/2/4
f 204/2/4 203/2/4 205/2/4
f 206/1/4 207/1/4 208/1/4
f 208/1/4 207/1/4 209/1/4
f 208/2/4 209/2/4 210/2/4
f 210/2/4 209/2/4 211/2/4
f 209/1/4 207/1/4 212/1/4
f 211/2/4 209/2/4 212/2/4
f 212/1/4 207/1/4 213/1/4
f 211/2/4 212/2/4 214/2/4
f 212/2/4 213/2/4 214/2/4
f 214/2/4 213/2/4 215/2/4
f 215/2/4 213/2/4 216/2/4
f 213/1/4 207/1/4 217/1/4
f 216/2/4 213/2/4 217/2/4
f 217/1/4 207/1/4 218/1/4
f 218/1/4 207/1/4 219/1/4
f 206/1/4 208/1/4 220/1/4
f 220/1/4 208/1/4 221/1/4
f 208/2/4 210/2/4 222/2/4
f 221/1/4 208/1/4 224/1/4
f 222/2/4 223/2/4 225/2/4
f 224/1/4 208/1/4 225/1/4
f 208/2/4 222/2/4 225/2/4
f 225/2/4 223/2/4 226/2/4
f 229/1/5 228/1/5 227/1/5
f 230/1/5 228/1/5 229/1/5
f 231/1/5 229/1/5 227/1/5
f 232/1/5 229/1/5 231/1/5
f 233/1/5 231/1/5 227/1/5
f 235/1/5 234/1/5 233/1/5
f 237/1/5 235/1/5 233/1/5
f 237/1/5 236/1/5 235/1/5
f 237/1/5 233/1/5 227/1/5
f 238/1/5 236/1/5 237/1/5
f 242/1/5 240/1/5 239/1/5
f 242/1/5 241/1/5 240/1/5
f 243/1/5 241/1/5 242/1/5
f 244/1/5 241/1/5 243/1/5
f 246/1/5 244/1/5 243/1/5
f 246/1/5 245/1/5 244/1/5
f 247/1/5 245/1/5 246/1/5
f 248/1/5 245/1/5 247/1/5
f 249/1/5 245/1/5 248/1/5
f 253/1/5 251/1/5 250/1/5
f 253/1/5 252/1/5 251/1/5
f 254/1/5 252/1/5 253/1/5
f 255/1/5 252/1/5 254/1/5
f 256/1/5 252/1/5 255/1/5
f 259/1/5 258/1/5 257/1/5
f 260/1/5 258/1/5 259/1/5
f 263/2/5 262/2/5 261/2/5
f 264/2/5 262/2/5 263/2/5
f 267/2/5 266/2/5 265/2/5
f 269/2/5 267/2/5 265/2/5
f 269/2/5 268/2/5 267/2/5
f 270/2/5 268/2/5 269/2/5
f 274/1/5 272/1/5 271/1/5
f 274/1/5 273/1/5 272/1/5
f 275/1/5 273/1/5 274/1/5
f 276/1/5 273/1/5 275/1/5
f 278/1/5 277/1/5 276/1/5
f 278/1/5 276/1/5 275/1/5
f 279/1/5 277/1/5 278/1/5
f 280/1/6 281/1/6 282/1/6
f 282/1/6 281/1/6 283/1/6
f 284/2/6 285/2/6 287/2/6
f 286/2/6 287/2/6 289/2/6
f 287/2/6 285/2/6 290/2/6
f 289/2/6 287/2/6 290/2/6
f 288/2/6 289/2/6 293/2/6
f 290/2/6 291/2/6 293/2/6
f 289/2/6 290/2/6 293/2/6
f 292/2/6 293/2/6 294/2/6
f 293/2/6 291/2/6 295/2/6
f 294/2/6 293/2/6 295/2/6
f 296/2/6 297/2/6 298/2/6
f 298/2/6 297/2/6 299/2/6
f 299/2/6 297/2/6 300/2/6
f 299/2/6 300/2/6 302/2/6
f 300/2/6 301/2/6 302/2/6
f 302/2/6 301/2/6 303/2/6
f 303/2/6 301/2/6 304/2/6
f 304/2/6 301/2/6 305/2/6
f 306/2/6 307/2/6 308/2/6
f 308/2/6 307/2/6 309/2/6
f 309/2/6 307/2/6 310/2/6
f 311/2/6 312/2/6 313/2/6
f 313/2/6 312/2/6 314/2/6
f 315/1/6 316/1/6 317/1/6
f 317/1/6 316/1/6 318/1/6
f 315/1/6 317/1/6 319/1/6
f 319/1/6 317/1/6 320/1/6
f 315/1/6 319/1/6 321/1/6
f 321/1/6 319/1/6 322/1/6
f 315/1/6 321/1/6 323/1/6
f 323/1/6 324/1/6 325/1/6
f 323/1/6 325/1/6 327/1/6
f 325/1/6 326/1/6 327/1/6
f 315/1/6 323/1/6 327/1/6
f 327/1/6 326/1/6 328/1/6
