# MagicaVoxel @ Ephtracy

# group
o 

# material
mtllib Tanke.mtl
usemtl palette

# normals
vn -1 0 0
vn 1 0 0
vn 0 0 1
vn 0 0 -1
vn 0 -1 0
vn 0 1 0

# texcoords
vt 0.763672 0.5
vt 0.880859 0.5
vt 0.982422 0.5

# verts
v -0.8 0 0.7
v -0.8 0 -0.8
v -0.8 0.1 0.5
v -0.8 0.1 -0.6
v -0.8 0.2 0.5
v -0.8 0.2 -0.6
v -0.8 0.3 0.7
v -0.8 0.3 -0.8
v -0.7 0.1 0.5
v -0.7 0.1 -0.6
v -0.7 0.2 0.5
v -0.7 0.2 -0.6
v -0.7 0.3 0.6
v -0.7 0.3 -0.7
v -0.7 0.4 0.6
v -0.7 0.4 -0.7
v -0.6 0.4 0.6
v -0.6 0.4 -0.7
v -0.6 0.5 0.6
v -0.6 0.5 -0.7
v -0.5 0.1 0.6
v -0.5 0.1 0.5
v -0.5 0.3 0.6
v -0.5 0.3 0.5
v -0.5 0.5 0.3
v -0.5 0.5 -0.6
v -0.5 0.6 0.3
v -0.5 0.6 -0.6
v -0.3 0.6 0.1
v -0.3 0.6 -0.4
v -0.3 0.8 0.1
v -0.3 0.8 -0.4
v -0.2 0.8 -5.96046e-08
v -0.2 0.8 -0.3
v -0.2 0.9 -5.96046e-08
v -0.2 0.9 -0.3
v -0.1 0.5 0.8
v -0.1 0.5 0.3
v -0.1 0.6 0.8
v -0.1 0.6 0.3
v 0.1 0.1 0.3
v 0.1 0.1 0.2
v 0.1 0.3 0.3
v 0.1 0.3 0.2
v 0.3 0.1 0.4
v 0.3 0.1 0.3
v 0.3 0.3 0.4
v 0.3 0.3 0.3
v 0.4 0 0.6
v 0.4 0 0.4
v 0.4 0.4 0.6
v 0.4 0.4 0.4
v 0.5 0.4 0.6
v 0.5 0.4 0.3
v 0.5 0.4 -0.6
v 0.5 0.4 -0.7
v 0.5 0.5 0.6
v 0.5 0.5 0.3
v 0.5 0.5 -0.6
v 0.5 0.5 -0.7
v 0.6 0.1 0.6
v 0.6 0.1 0.5
v 0.6 0.1 -0.6
v 0.6 0.1 -0.7
v 0.6 0.3 0.6
v 0.6 0.3 0.5
v 0.6 0.3 -0.6
v 0.6 0.3 -0.7
v 0.7 0 0.7
v 0.7 0 0.6
v 0.7 0 -0.7
v 0.7 0 -0.8
v 0.7 0.3 0.7
v 0.7 0.3 0.6
v 0.7 0.3 -0.7
v 0.7 0.3 -0.8
v -0.7 0 0.7
v -0.7 0 0.6
v -0.7 0 -0.7
v -0.7 0 -0.8
v -0.7 0.3 0.7
v -0.7 0.3 0.6
v -0.7 0.3 -0.7
v -0.7 0.3 -0.8
v -0.6 0.1 0.6
v -0.6 0.1 0.5
v -0.6 0.1 -0.6
v -0.6 0.1 -0.7
v -0.6 0.3 0.6
v -0.6 0.3 0.5
v -0.6 0.3 -0.6
v -0.6 0.3 -0.7
v -0.5 0.4 0.6
v -0.5 0.4 0.3
v -0.5 0.4 -0.6
v -0.5 0.4 -0.7
v -0.5 0.5 0.6
v -0.5 0.5 0.3
v -0.5 0.5 -0.6
v -0.5 0.5 -0.7
v -0.4 0 0.6
v -0.4 0 0.4
v -0.4 0.4 0.6
v -0.4 0.4 0.4
v -0.3 0.1 0.4
v -0.3 0.1 0.3
v -0.3 0.3 0.4
v -0.3 0.3 0.3
v -0.1 0.1 0.3
v -0.1 0.1 0.2
v -0.1 0.3 0.3
v -0.1 0.3 0.2
v 0.1 0.5 0.8
v 0.1 0.5 0.3
v 0.1 0.6 0.8
v 0.1 0.6 0.3
v 0.2 0.8 -5.96046e-08
v 0.2 0.8 -0.3
v 0.2 0.9 -5.96046e-08
v 0.2 0.9 -0.3
v 0.3 0.6 0.1
v 0.3 0.6 -0.4
v 0.3 0.8 0.1
v 0.3 0.8 -0.4
v 0.5 0.1 0.6
v 0.5 0.1 0.5
v 0.5 0.3 0.6
v 0.5 0.3 0.5
v 0.5 0.5 0.3
v 0.5 0.5 -0.6
v 0.5 0.6 0.3
v 0.5 0.6 -0.6
v 0.6 0.4 0.6
v 0.6 0.4 -0.7
v 0.6 0.5 0.6
v 0.6 0.5 -0.7
v 0.7 0.1 0.5
v 0.7 0.1 -0.6
v 0.7 0.2 0.5
v 0.7 0.2 -0.6
v 0.7 0.3 0.6
v 0.7 0.3 -0.7
v 0.7 0.4 0.6
v 0.7 0.4 -0.7
v 0.8 0 0.7
v 0.8 0 -0.8
v 0.8 0.1 0.5
v 0.8 0.1 -0.6
v 0.8 0.2 0.5
v 0.8 0.2 -0.6
v 0.8 0.3 0.7
v 0.8 0.3 -0.8
v -0.1 0.5 0.8
v -0.1 0.6 0.8
v 0.1 0.5 0.8
v 0.1 0.6 0.8
v -0.8 0 0.7
v -0.8 0.3 0.7
v -0.7 0 0.7
v -0.7 0.3 0.7
v 0.7 0 0.7
v 0.7 0.3 0.7
v 0.8 0 0.7
v 0.8 0.3 0.7
v -0.7 0 0.6
v -0.7 0.3 0.6
v -0.7 0.4 0.6
v -0.6 0.1 0.6
v -0.6 0.3 0.6
v -0.6 0.4 0.6
v -0.6 0.5 0.6
v -0.5 0.1 0.6
v -0.5 0.3 0.6
v -0.5 0.4 0.6
v -0.5 0.5 0.6
v -0.4 0 0.6
v -0.4 0.4 0.6
v 0.4 0 0.6
v 0.4 0.4 0.6
v 0.5 0.1 0.6
v 0.5 0.3 0.6
v 0.5 0.4 0.6
v 0.5 0.5 0.6
v 0.6 0.1 0.6
v 0.6 0.3 0.6
v 0.6 0.4 0.6
v 0.6 0.5 0.6
v 0.7 0 0.6
v 0.7 0.3 0.6
v 0.7 0.4 0.6
v -0.6 0.1 0.5
v -0.6 0.3 0.5
v -0.5 0.1 0.5
v -0.5 0.3 0.5
v 0.5 0.1 0.5
v 0.5 0.3 0.5
v 0.6 0.1 0.5
v 0.6 0.3 0.5
v -0.4 0 0.4
v -0.4 0.4 0.4
v -0.3 0.1 0.4
v -0.3 0.3 0.4
v 0.3 0.1 0.4
v 0.3 0.3 0.4
v 0.4 0 0.4
v 0.4 0.4 0.4
v -0.5 0.4 0.3
v -0.5 0.5 0.3
v -0.5 0.6 0.3
v -0.3 0.1 0.3
v -0.3 0.3 0.3
v -0.1 0.1 0.3
v -0.1 0.3 0.3
v -0.1 0.5 0.3
v -0.1 0.6 0.3
v 0.1 0.1 0.3
v 0.1 0.3 0.3
v 0.1 0.5 0.3
v 0.1 0.6 0.3
v 0.3 0.1 0.3
v 0.3 0.3 0.3
v 0.5 0.4 0.3
v 0.5 0.5 0.3
v 0.5 0.6 0.3
v -0.1 0.1 0.2
v -0.1 0.3 0.2
v 0.1 0.1 0.2
v 0.1 0.3 0.2
v -0.3 0.6 0.1
v -0.3 0.8 0.1
v -0.1 0.6 0.1
v 0.1 0.6 0.1
v 0.3 0.6 0.1
v 0.3 0.8 0.1
v -0.2 0.8 -5.96046e-08
v -0.2 0.9 -5.96046e-08
v 0.2 0.8 -5.96046e-08
v 0.2 0.9 -5.96046e-08
v -0.8 0.1 -0.6
v -0.8 0.2 -0.6
v -0.7 0.1 -0.6
v -0.7 0.2 -0.6
v 0.7 0.1 -0.6
v 0.7 0.2 -0.6
v 0.8 0.1 -0.6
v 0.8 0.2 -0.6
v -0.8 0.1 0.5
v -0.8 0.2 0.5
v -0.7 0.1 0.5
v -0.7 0.2 0.5
v 0.7 0.1 0.5
v 0.7 0.2 0.5
v 0.8 0.1 0.5
v 0.8 0.2 0.5
v -0.2 0.8 -0.3
v -0.2 0.9 -0.3
v 0.2 0.8 -0.3
v 0.2 0.9 -0.3
v -0.3 0.6 -0.4
v -0.3 0.8 -0.4
v 0.3 0.6 -0.4
v 0.3 0.8 -0.4
v -0.6 0.1 -0.6
v -0.6 0.3 -0.6
v -0.5 0.4 -0.6
v -0.5 0.5 -0.6
v -0.5 0.6 -0.6
v 0.5 0.4 -0.6
v 0.5 0.5 -0.6
v 0.5 0.6 -0.6
v 0.6 0.1 -0.6
v 0.6 0.3 -0.6
v -0.7 0 -0.7
v -0.7 0.3 -0.7
v -0.7 0.4 -0.7
v -0.6 0.1 -0.7
v -0.6 0.3 -0.7
v -0.6 0.4 -0.7
v -0.6 0.5 -0.7
v -0.5 0.4 -0.7
v -0.5 0.5 -0.7
v 0.5 0.4 -0.7
v 0.5 0.5 -0.7
v 0.6 0.1 -0.7
v 0.6 0.3 -0.7
v 0.6 0.4 -0.7
v 0.6 0.5 -0.7
v 0.7 0 -0.7
v 0.7 0.3 -0.7
v 0.7 0.4 -0.7
v -0.8 0 -0.8
v -0.8 0.3 -0.8
v -0.7 0 -0.8
v -0.7 0.3 -0.8
v 0.7 0 -0.8
v 0.7 0.3 -0.8
v 0.8 0 -0.8
v 0.8 0.3 -0.8
v -0.8 0 0.7
v -0.7 0 0.7
v 0.7 0 0.7
v 0.8 0 0.7
v -0.7 0 0.6
v -0.4 0 0.6
v 0.4 0 0.6
v 0.7 0 0.6
v -0.4 0 0.4
v 0.4 0 0.4
v -0.7 0 -0.7
v 0.7 0 -0.7
v -0.8 0 -0.8
v -0.7 0 -0.8
v 0.7 0 -0.8
v 0.8 0 -0.8
v -0.8 0.2 0.5
v -0.7 0.2 0.5
v 0.7 0.2 0.5
v 0.8 0.2 0.5
v -0.8 0.2 -0.6
v -0.7 0.2 -0.6
v 0.7 0.2 -0.6
v 0.8 0.2 -0.6
v -0.6 0.3 0.6
v -0.5 0.3 0.6
v 0.5 0.3 0.6
v 0.6 0.3 0.6
v -0.6 0.3 0.5
v -0.5 0.3 0.5
v 0.5 0.3 0.5
v 0.6 0.3 0.5
v -0.3 0.3 0.4
v 0.3 0.3 0.4
v -0.3 0.3 0.3
v -0.1 0.3 0.3
v 0.1 0.3 0.3
v 0.3 0.3 0.3
v -0.1 0.3 0.2
v 0.1 0.3 0.2
v -0.6 0.3 -0.6
v 0.6 0.3 -0.6
v -0.6 0.3 -0.7
v 0.6 0.3 -0.7
v -0.1 0.5 0.8
v 0.1 0.5 0.8
v -0.1 0.5 0.3
v 0.1 0.5 0.3
v -0.6 0.1 0.6
v -0.5 0.1 0.6
v 0.5 0.1 0.6
v 0.6 0.1 0.6
v -0.8 0.1 0.5
v -0.7 0.1 0.5
v -0.6 0.1 0.5
v -0.5 0.1 0.5
v 0.5 0.1 0.5
v 0.6 0.1 0.5
v 0.7 0.1 0.5
v 0.8 0.1 0.5
v -0.3 0.1 0.4
v 0.3 0.1 0.4
v -0.3 0.1 0.3
v -0.1 0.1 0.3
v 0.1 0.1 0.3
v 0.3 0.1 0.3
v -0.1 0.1 0.2
v 0.1 0.1 0.2
v -0.8 0.1 -0.6
v -0.7 0.1 -0.6
v -0.6 0.1 -0.6
v 0.6 0.1 -0.6
v 0.7 0.1 -0.6
v 0.8 0.1 -0.6
v -0.6 0.1 -0.7
v 0.6 0.1 -0.7
v -0.8 0.3 0.7
v -0.7 0.3 0.7
v 0.7 0.3 0.7
v 0.8 0.3 0.7
v -0.7 0.3 0.6
v 0.7 0.3 0.6
v -0.7 0.3 -0.7
v 0.7 0.3 -0.7
v -0.8 0.3 -0.8
v -0.7 0.3 -0.8
v 0.7 0.3 -0.8
v 0.8 0.3 -0.8
v -0.7 0.4 0.6
v -0.6 0.4 0.6
v -0.5 0.4 0.6
v -0.4 0.4 0.6
v 0.4 0.4 0.6
v 0.5 0.4 0.6
v 0.6 0.4 0.6
v 0.7 0.4 0.6
v -0.4 0.4 0.4
v 0.4 0.4 0.4
v -0.5 0.4 0.3
v 0.5 0.4 0.3
v -0.5 0.4 -0.6
v 0.5 0.4 -0.6
v -0.7 0.4 -0.7
v -0.6 0.4 -0.7
v -0.5 0.4 -0.7
v 0.5 0.4 -0.7
v 0.6 0.4 -0.7
v 0.7 0.4 -0.7
v -0.6 0.5 0.6
v -0.5 0.5 0.6
v 0.5 0.5 0.6
v 0.6 0.5 0.6
v -0.5 0.5 0.3
v 0.5 0.5 0.3
v -0.5 0.5 -0.6
v 0.5 0.5 -0.6
v -0.6 0.5 -0.7
v -0.5 0.5 -0.7
v 0.5 0.5 -0.7
v 0.6 0.5 -0.7
v -0.1 0.6 0.8
v 0.1 0.6 0.8
v -0.5 0.6 0.3
v -0.1 0.6 0.3
v 0.1 0.6 0.3
v 0.5 0.6 0.3
v -0.3 0.6 0.1
v -0.1 0.6 0.1
v 0.1 0.6 0.1
v 0.3 0.6 0.1
v -0.3 0.6 -0.4
v 0.3 0.6 -0.4
v -0.5 0.6 -0.6
v 0.5 0.6 -0.6
v -0.3 0.8 0.1
v 0.3 0.8 0.1
v -0.2 0.8 -5.96046e-08
v 0.2 0.8 -5.96046e-08
v -0.2 0.8 -0.3
v 0.2 0.8 -0.3
v -0.3 0.8 -0.4
v 0.3 0.8 -0.4
v -0.2 0.9 -5.96046e-08
v 0.2 0.9 -5.96046e-08
v -0.2 0.9 -0.3
v 0.2 0.9 -0.3

# faces
f 3/3/1 2/3/1 1/3/1
f 4/3/1 2/3/1 3/3/1
f 5/3/1 3/3/1 1/3/1
f 6/3/1 2/3/1 4/3/1
f 7/3/1 5/3/1 1/3/1
f 7/3/1 6/3/1 5/3/1
f 8/3/1 2/3/1 6/3/1
f 8/3/1 6/3/1 7/3/1
f 11/2/1 10/2/1 9/2/1
f 12/2/1 10/2/1 11/2/1
f 15/2/1 14/2/1 13/2/1
f 16/2/1 14/2/1 15/2/1
f 19/1/1 18/1/1 17/1/1
f 20/1/1 18/1/1 19/1/1
f 23/2/1 22/2/1 21/2/1
f 24/2/1 22/2/1 23/2/1
f 27/1/1 26/1/1 25/1/1
f 28/1/1 26/1/1 27/1/1
f 31/1/1 30/1/1 29/1/1
f 32/1/1 30/1/1 31/1/1
f 35/1/1 34/1/1 33/1/1
f 36/1/1 34/1/1 35/1/1
f 39/3/1 38/3/1 37/3/1
f 40/3/1 38/3/1 39/3/1
f 43/2/1 42/2/1 41/2/1
f 44/2/1 42/2/1 43/2/1
f 47/2/1 46/2/1 45/2/1
f 48/2/1 46/2/1 47/2/1
f 51/2/1 50/2/1 49/2/1
f 52/2/1 50/2/1 51/2/1
f 57/1/1 54/1/1 53/1/1
f 58/1/1 54/1/1 57/1/1
f 59/1/1 56/1/1 55/1/1
f 60/1/1 56/1/1 59/1/1
f 65/2/1 62/2/1 61/2/1
f 66/2/1 62/2/1 65/2/1
f 67/2/1 64/2/1 63/2/1
f 68/2/1 64/2/1 67/2/1
f 73/3/1 70/3/1 69/3/1
f 74/3/1 70/3/1 73/3/1
f 75/3/1 72/3/1 71/3/1
f 76/3/1 72/3/1 75/3/1
f 77/3/2 78/3/2 81/3/2
f 81/3/2 78/3/2 82/3/2
f 79/3/2 80/3/2 83/3/2
f 83/3/2 80/3/2 84/3/2
f 85/2/2 86/2/2 89/2/2
f 89/2/2 86/2/2 90/2/2
f 87/2/2 88/2/2 91/2/2
f 91/2/2 88/2/2 92/2/2
f 93/1/2 94/1/2 97/1/2
f 97/1/2 94/1/2 98/1/2
f 95/1/2 96/1/2 99/1/2
f 99/1/2 96/1/2 100/1/2
f 101/2/2 102/2/2 103/2/2
f 103/2/2 102/2/2 104/2/2
f 105/2/2 106/2/2 107/2/2
f 107/2/2 106/2/2 108/2/2
f 109/2/2 110/2/2 111/2/2
f 111/2/2 110/2/2 112/2/2
f 113/3/2 114/3/2 115/3/2
f 115/3/2 114/3/2 116/3/2
f 117/1/2 118/1/2 119/1/2
f 119/1/2 118/1/2 120/1/2
f 121/1/2 122/1/2 123/1/2
f 123/1/2 122/1/2 124/1/2
f 125/2/2 126/2/2 127/2/2
f 127/2/2 126/2/2 128/2/2
f 129/1/2 130/1/2 131/1/2
f 131/1/2 130/1/2 132/1/2
f 133/1/2 134/1/2 135/1/2
f 135/1/2 134/1/2 136/1/2
f 137/2/2 138/2/2 139/2/2
f 139/2/2 138/2/2 140/2/2
f 141/2/2 142/2/2 143/2/2
f 143/2/2 142/2/2 144/2/2
f 145/3/2 146/3/2 147/3/2
f 147/3/2 146/3/2 148/3/2
f 145/3/2 147/3/2 149/3/2
f 148/3/2 146/3/2 150/3/2
f 145/3/2 149/3/2 151/3/2
f 149/3/2 150/3/2 151/3/2
f 150/3/2 146/3/2 152/3/2
f 151/3/2 150/3/2 152/3/2
f 155/3/3 154/3/3 153/3/3
f 156/3/3 154/3/3 155/3/3
f 159/3/3 158/3/3 157/3/3
f 160/3/3 158/3/3 159/3/3
f 163/3/3 162/3/3 161/3/3
f 164/3/3 162/3/3 163/3/3
f 168/2/3 166/2/3 165/2/3
f 168/2/3 167/2/3 166/2/3
f 169/2/3 167/2/3 168/2/3
f 170/2/3 167/2/3 169/2/3
f 172/2/3 168/2/3 165/2/3
f 173/2/3 170/2/3 169/2/3
f 174/1/3 171/1/3 170/1/3
f 174/2/3 170/2/3 173/2/3
f 175/1/3 171/1/3 174/1/3
f 176/2/3 173/2/3 172/2/3
f 176/2/3 172/2/3 165/2/3
f 176/2/3 174/2/3 173/2/3
f 177/2/3 174/2/3 176/2/3
f 180/2/3 179/2/3 178/2/3
f 181/2/3 179/2/3 180/2/3
f 182/2/3 179/2/3 181/2/3
f 184/2/3 180/2/3 178/2/3
f 185/2/3 182/2/3 181/2/3
f 186/1/3 183/1/3 182/1/3
f 186/2/3 182/2/3 185/2/3
f 187/1/3 183/1/3 186/1/3
f 188/2/3 184/2/3 178/2/3
f 188/2/3 185/2/3 184/2/3
f 188/2/3 186/2/3 185/2/3
f 189/2/3 186/2/3 188/2/3
f 190/2/3 186/2/3 189/2/3
f 193/2/3 192/2/3 191/2/3
f 194/2/3 192/2/3 193/2/3
f 197/2/3 196/2/3 195/2/3
f 198/2/3 196/2/3 197/2/3
f 201/2/3 200/2/3 199/2/3
f 202/2/3 200/2/3 201/2/3
f 203/2/3 201/2/3 199/2/3
f 204/2/3 200/2/3 202/2/3
f 205/2/3 203/2/3 199/2/3
f 205/2/3 204/2/3 203/2/3
f 206/2/3 200/2/3 204/2/3
f 206/2/3 204/2/3 205/2/3
f 212/2/3 211/2/3 210/2/3
f 213/2/3 211/2/3 212/2/3
f 214/1/3 208/1/3 207/1/3
f 214/1/3 209/1/3 208/1/3
f 215/1/3 209/1/3 214/1/3
f 218/1/3 214/1/3 207/1/3
f 220/2/3 217/2/3 216/2/3
f 221/2/3 217/2/3 220/2/3
f 222/1/3 219/1/3 218/1/3
f 222/1/3 218/1/3 207/1/3
f 223/1/3 219/1/3 222/1/3
f 224/1/3 219/1/3 223/1/3
f 227/2/3 226/2/3 225/2/3
f 228/2/3 226/2/3 227/2/3
f 231/1/3 230/1/3 229/1/3
f 232/1/3 230/1/3 231/1/3
f 233/1/3 230/1/3 232/1/3
f 234/1/3 230/1/3 233/1/3
f 237/1/3 236/1/3 235/1/3
f 238/1/3 236/1/3 237/1/3
f 241/3/3 240/3/3 239/3/3
f 242/3/3 240/3/3 241/3/3
f 245/3/3 244/3/3 243/3/3
f 246/3/3 244/3/3 245/3/3
f 247/3/4 248/3/4 249/3/4
f 249/3/4 248/3/4 250/3/4
f 251/3/4 252/3/4 253/3/4
f 253/3/4 252/3/4 254/3/4
f 255/1/4 256/1/4 257/1/4
f 257/1/4 256/1/4 258/1/4
f 259/1/4 260/1/4 261/1/4
f 261/1/4 260/1/4 262/1/4
f 265/1/4 266/1/4 268/1/4
f 266/1/4 267/1/4 268/1/4
f 268/1/4 267/1/4 269/1/4
f 269/1/4 267/1/4 270/1/4
f 263/2/4 264/2/4 271/2/4
f 271/2/4 264/2/4 272/2/4
f 273/2/4 274/2/4 276/2/4
f 274/2/4 275/2/4 276/2/4
f 276/2/4 275/2/4 277/2/4
f 277/2/4 275/2/4 278/2/4
f 278/1/4 279/1/4 280/1/4
f 277/2/4 278/2/4 280/2/4
f 280/1/4 279/1/4 281/1/4
f 277/2/4 280/2/4 282/2/4
f 273/2/4 276/2/4 284/2/4
f 277/2/4 282/2/4 285/2/4
f 282/1/4 283/1/4 286/1/4
f 285/2/4 282/2/4 286/2/4
f 286/1/4 283/1/4 287/1/4
f 284/2/4 285/2/4 288/2/4
f 273/2/4 284/2/4 288/2/4
f 285/2/4 286/2/4 288/2/4
f 288/2/4 286/2/4 289/2/4
f 289/2/4 286/2/4 290/2/4
f 291/3/4 292/3/4 293/3/4
f 293/3/4 292/3/4 294/3/4
f 295/3/4 296/3/4 297/3/4
f 297/3/4 296/3/4 298/3/4
f 303/3/5 300/3/5 299/3/5
f 306/3/5 302/3/5 301/3/5
f 307/2/5 304/2/5 303/2/5
f 308/2/5 306/2/5 305/2/5
f 309/2/5 307/2/5 303/2/5
f 309/2/5 308/2/5 307/2/5
f 309/3/5 303/3/5 299/3/5
f 310/2/5 306/2/5 308/2/5
f 310/2/5 308/2/5 309/2/5
f 310/3/5 302/3/5 306/3/5
f 311/3/5 309/3/5 299/3/5
f 312/3/5 309/3/5 311/3/5
f 313/3/5 302/3/5 310/3/5
f 314/3/5 302/3/5 313/3/5
f 319/3/5 316/3/5 315/3/5
f 320/3/5 316/3/5 319/3/5
f 321/3/5 318/3/5 317/3/5
f 322/3/5 318/3/5 321/3/5
f 327/2/5 324/2/5 323/2/5
f 328/2/5 324/2/5 327/2/5
f 329/2/5 326/2/5 325/2/5
f 330/2/5 326/2/5 329/2/5
f 333/2/5 332/2/5 331/2/5
f 334/2/5 332/2/5 333/2/5
f 335/2/5 332/2/5 334/2/5
f 336/2/5 332/2/5 335/2/5
f 337/2/5 335/2/5 334/2/5
f 338/2/5 335/2/5 337/2/5
f 341/2/5 340/2/5 339/2/5
f 342/2/5 340/2/5 341/2/5
f 345/3/5 344/3/5 343/3/5
f 346/3/5 344/3/5 345/3/5
f 347/2/6 348/2/6 353/2/6
f 353/2/6 348/2/6 354/2/6
f 349/2/6 350/2/6 355/2/6
f 355/2/6 350/2/6 356/2/6
f 359/2/6 360/2/6 361/2/6
f 361/2/6 360/2/6 362/2/6
f 362/2/6 360/2/6 363/2/6
f 363/2/6 360/2/6 364/2/6
f 362/2/6 363/2/6 365/2/6
f 365/2/6 363/2/6 366/2/6
f 351/3/6 352/3/6 367/3/6
f 367/3/6 352/3/6 368/3/6
f 357/3/6 358/3/6 371/3/6
f 371/3/6 358/3/6 372/3/6
f 369/2/6 370/2/6 373/2/6
f 373/2/6 370/2/6 374/2/6
f 375/3/6 376/3/6 379/3/6
f 377/3/6 378/3/6 380/3/6
f 375/3/6 379/3/6 381/3/6
f 380/3/6 378/3/6 382/3/6
f 375/3/6 381/3/6 383/3/6
f 383/3/6 381/3/6 384/3/6
f 382/3/6 378/3/6 385/3/6
f 385/3/6 378/3/6 386/3/6
f 389/2/6 390/2/6 395/2/6
f 391/2/6 392/2/6 396/2/6
f 389/2/6 395/2/6 397/2/6
f 395/2/6 396/2/6 397/2/6
f 396/2/6 392/2/6 398/2/6
f 397/2/6 396/2/6 398/2/6
f 387/2/6 388/2/6 401/2/6
f 401/2/6 388/2/6 402/2/6
f 399/2/6 400/2/6 403/2/6
f 403/2/6 400/2/6 404/2/6
f 393/2/6 394/2/6 405/2/6
f 405/2/6 394/2/6 406/2/6
f 407/1/6 408/1/6 411/1/6
f 409/1/6 410/1/6 412/1/6
f 407/1/6 411/1/6 413/1/6
f 412/1/6 410/1/6 414/1/6
f 407/1/6 413/1/6 415/1/6
f 415/1/6 413/1/6 416/1/6
f 414/1/6 410/1/6 417/1/6
f 417/1/6 410/1/6 418/1/6
f 419/3/6 420/3/6 422/3/6
f 422/3/6 420/3/6 423/3/6
f 421/1/6 422/1/6 425/1/6
f 422/3/6 423/3/6 426/3/6
f 425/1/6 422/1/6 426/1/6
f 423/1/6 424/1/6 427/1/6
f 426/3/6 423/3/6 427/3/6
f 427/1/6 424/1/6 428/1/6
f 421/1/6 425/1/6 429/1/6
f 428/1/6 424/1/6 430/1/6
f 421/1/6 429/1/6 431/1/6
f 429/1/6 430/1/6 431/1/6
f 430/1/6 424/1/6 432/1/6
f 431/1/6 430/1/6 432/1/6
f 433/1/6 434/1/6 435/1/6
f 435/1/6 434/1/6 436/1/6
f 433/1/6 435/1/6 437/1/6
f 436/1/6 434/1/6 438/1/6
f 433/1/6 437/1/6 439/1/6
f 437/1/6 438/1/6 439/1/6
f 438/1/6 434/1/6 440/1/6
f 439/1/6 438/1/6 440/1/6
f 441/1/6 442/1/6 443/1/6
f 443/1/6 442/1/6 444/1/6
